{
    "asset": {
        "version": "2.0",
        "generator": "Open Asset Import Library (assimp v5.0.5eb040c7)"
    },
    "accessors": [
        {
            "bufferView": 0,
            "byteOffset": 0,
            "componentType": 5126,
            "count": 1155,
            "type": "VEC3",
            "max": [
                4.458502769470215,
                1.7209320068359376,
                9.405499458312989
            ],
            "min": [
                -4.153730869293213,
                -2.0206680297851564,
                -11.288805961608887
            ]
        },
        {
            "bufferView": 1,
            "byteOffset": 0,
            "componentType": 5126,
            "count": 1155,
            "type": "VEC3",
            "max": [
                0.998097836971283,
                0.9894206523895264,
                0.9160422682762146
            ],
            "min": [
                -0.9901113510131836,
                -0.9957191348075867,
                -0.8711704015731812
            ]
        },
        {
            "bufferView": 2,
            "byteOffset": 0,
            "componentType": 5126,
            "count": 1155,
            "type": "VEC2",
            "max": [
                1.0,
                1.0
            ],
            "min": [
                0.0,
                0.0
            ]
        },
        {
            "bufferView": 3,
            "byteOffset": 0,
            "componentType": 5125,
            "count": 1851,
            "type": "SCALAR",
            "max": [
                1154
            ],
            "min": [
                0
            ]
        }
    ],
    "buffers": [
        {
            "byteLength": 44364,
            "uri": "result.bin"
        }
    ],
    "bufferViews": [
        {
            "buffer": 0,
            "byteOffset": 0,
            "byteLength": 13860,
            "target": 34962
        },
        {
            "buffer": 0,
            "byteOffset": 13860,
            "byteLength": 13860,
            "target": 34962
        },
        {
            "buffer": 0,
            "byteOffset": 27720,
            "byteLength": 9240,
            "target": 34962
        },
        {
            "buffer": 0,
            "byteOffset": 36960,
            "byteLength": 7404,
            "target": 34963
        }
    ],
    "materials": [
        {
            "name": "DefaultMaterial",
            "pbrMetallicRoughness": {
                "baseColorFactor": [
                    0.6000000238418579,
                    0.6000000238418579,
                    0.6000000238418579,
                    1.0
                ],
                "metallicFactor": 0.0
            }
        },
        {
            "name": "Whale",
            "pbrMetallicRoughness": {
                "baseColorFactor": [
                    0.6000000238418579,
                    0.6000000238418579,
                    0.6000000238418579,
                    1.0
                ],
                "metallicFactor": 0.0
            }
        }
    ],
    "meshes": [
        {
            "name": "Whale_WhaleMesh_Whale",
            "primitives": [
                {
                    "mode": 4,
                    "material": 1,
                    "indices": 3,
                    "attributes": {
                        "POSITION": 0,
                        "NORMAL": 1,
                        "TEXCOORD_0": 2
                    }
                }
            ]
        }
    ],
    "nodes": [
        {
            "name": "input.obj",
            "children": [
                1
            ]
        },
        {
            "name": "Whale_WhaleMesh_Whale",
            "mesh": 0
        }
    ],
    "scenes": [
        {
            "nodes": [
                0
            ]
        }
    ],
    "scene": 0
}